<?xml version="1.0" encoding="UTF-8" standalone="no"?>
<svg
   xmlns:dc="http://purl.org/dc/elements/1.1/"
   xmlns:cc="http://creativecommons.org/ns#"
   xmlns:rdf="http://www.w3.org/1999/02/22-rdf-syntax-ns#"
   xmlns:svg="http://www.w3.org/2000/svg"
   xmlns="http://www.w3.org/2000/svg"
   viewBox="0 0 131.88 131.88"
   height="131.88"
   width="131.88"
   xml:space="preserve"
   id="svg2"
   version="1.1"><metadata
     id="metadata8"><rdf:RDF><cc:Work
         rdf:about=""><dc:format>image/svg+xml</dc:format><dc:type
           rdf:resource="http://purl.org/dc/dcmitype/StillImage" /></cc:Work></rdf:RDF></metadata><defs
     id="defs6" /><g
     transform="matrix(1.3333333,0,0,-1.3333333,0,131.88)"
     id="g10"><g
       transform="scale(0.1)"
       id="g12"><path
         id="path14"
         style="fill:#eb6d18;fill-opacity:1;fill-rule:nonzero;stroke:none"
         d="M 363.562,762.434 473.977,571.191 c 17.539,4.688 36.675,3.321 54.07,-4.824 L 586.098,666.914 489.07,834.922 362.422,761.777 h 0.012 l 1.128,0.657" /><path
         id="path16"
         style="fill:#eb6d18;fill-opacity:1;fill-rule:nonzero;stroke:none"
         d="m 197.102,515.039 h 220.886 c 1.758,6.574 4.297,13.047 7.864,19.199 5.996,10.41 14.05,18.86 23.289,25.313 L 391.105,660.059 H 197.039 v -146.27 h 0.063 v 1.25" /><path
         id="path18"
         style="fill:#eb6d18;fill-opacity:1;fill-rule:nonzero;stroke:none"
         d="m 563.188,454.941 c -6.016,-10.41 -14.024,-18.828 -23.243,-25.273 l 58.086,-100.586 h 194.004 v 145 H 571.059 c -1.778,-6.57 -4.336,-12.988 -7.871,-19.141" /><path
         id="path20"
         style="fill:#eb6d18;fill-opacity:1;fill-rule:nonzero;stroke:none"
         d="m 550.512,550.625 c 13.398,-13.34 21.367,-30.859 22.968,-49.227 H 689.535 L 786.566,669.426 661,741.945 550.512,550.625" /><path
         id="path22"
         style="fill:#eb6d18;fill-opacity:1;fill-rule:nonzero;stroke:none"
         d="m 328.059,247.18 110.488,191.394 c -13.344,13.36 -21.313,30.821 -22.949,49.133 H 299.48 L 202.449,319.766 329.07,246.582 v 0 l -1.011,0.598" /><path
         id="path24"
         style="fill:#eb6d18;fill-opacity:1;fill-rule:nonzero;stroke:none"
         d="m 625.531,226.738 -110.402,191.25 c -17.524,-4.726 -36.684,-3.398 -54.106,4.797 l -58.062,-100.578 96.973,-167.969 126.652,73.117 v 0 l -1.055,-0.617" /><path
         id="path26"
         style="fill:#5580b6;fill-opacity:1;fill-rule:nonzero;stroke:none"
         d="M 494.57,989.102 C 221.875,989.102 0,767.285 0,494.629 0,221.895 221.875,0 494.57,0 c 272.68,0 494.496,221.895 494.496,494.629 0,272.656 -221.816,494.473 -494.496,494.473 z m 0,-100.118 c 217.797,0 394.36,-176.543 394.36,-394.355 0,-217.871 -176.563,-394.5 -394.36,-394.5 -217.832,0 -394.425,176.629 -394.425,394.5 0,217.812 176.593,394.355 394.425,394.355" /></g></g></svg>